# xmcd
#
# Track frame offsets:
#	150
#	10577
#	21145
#	35135
#	44945
#	59057
#	69570
#	81392
#	95380
#	111230
#	126840
#	143595
#	156570
#	168910
#	183657
#	197592
#	210477
#	224367
#	236667
#	246905
#
# Disc length: 3492 seconds
#
# Revision: 1
# Processed by: cddbd v1.5.2PL0 Copyright (c) Steve Scherf et al.
# Submitted via: EasyCDDAExtractor 16.0.6.1
#
DISCID=2e0da214
DTITLE=Flamingokvintetten - Guldkorn - CD 2
DYEAR=2000
DGENRE=Dansmusik
TTITLE0=Nynna En Sång
TTITLE1=En Vän Du Kan Väcka Mitt I Natten
TTITLE2=Lycka Till Med Nästa Kille
TTITLE3=Molly
TTITLE4=Loppan
TTITLE5=Lilla Ann
TTITLE6=Itsy Bitsy Teenie Weenie
TTITLE7=In Dreams
TTITLE8=Flicka Från Heidelberg
TTITLE9=Sjung, Sjung
TTITLE10=Vad Vore Livet Utan Drömmar
TTITLE11=Hawaiis Vita Sand
TTITLE12=Flickan På Vinden
TTITLE13=Alla Barn I Början
TTITLE14=Oh, La, La Fyra Dagar I Paris
TTITLE15=Dina Hemliga Sidor
TTITLE16=Lilla Söta Sofie
TTITLE17=Nu Gungar Jag På Regnbågen Igen
TTITLE18=Stupid Cupid
TTITLE19=Blommornas natt
EXTD=
EXTT0=
EXTT1=
EXTT2=
EXTT3=
EXTT4=
EXTT5=
EXTT6=
EXTT7=
EXTT8=
EXTT9=
EXTT10=
EXTT11=
EXTT12=
EXTT13=
EXTT14=
EXTT15=
EXTT16=
EXTT17=
EXTT18=
EXTT19=
PLAYORDER=
